<?xml version="1.0" encoding="UTF-8"?>
<svg width="400pt" height="122.59pt" version="1.1" viewBox="0 0 400 122.59" xmlns="http://www.w3.org/2000/svg">
 <g transform="matrix(2.854 0 0 2.854 -721.47 -513.85)">
  <g transform="translate(251.5, 223)">
   <path d="m14.031 0v-35.688h-12.734v-7.2656h34.125v7.2656h-12.719v35.688z"/>
  </g>
  <g transform="translate(288.16, 223)">
   <path d="m4.1094 0v-42.953h8.6719v42.953z"/>
  </g>
  <g transform="translate(304.84, 223)">
   <path d="m4.4219 0v-42.953h29.453v7.2656h-20.781v10.172h17.938v7.2656h-17.938v18.25z"/>
  </g>
  <g transform="translate(341.5, 223)">
   <path d="m4.4219 0v-42.953h29.453v7.2656h-20.781v10.172h17.938v7.2656h-17.938v18.25z"/>
  </g>
  <g transform="translate(382.5, 190)">
   <path d="m2.8594-3.8125v-4.0625h-1.5469v-0.71875h3.9062v0.71875h-1.5625v4.0625zm2.8906 0v-4.7812h1.1719l1.2188 3.8125 1.1562-3.8125h1.1562v4.7812h-0.73438v-4.0156l-1.2344 4.0156h-0.71875l-1.2812-4.0625v4.0625z"/>
  </g>
 </g>
</svg>
